<?xml version="1.0" encoding="UTF-8" standalone="no"?>
<!-- Created with Inkscape (http://www.inkscape.org/) -->

<svg
   width="400mm"
   height="300mm"
   viewBox="0 0 400 300"
   version="1.1"
   id="svg1"
   inkscape:version="1.3.2 (1:1.3.2+202311252150+091e20ef0f)"
   sodipodi:docname="printables-com-model-1003937.svg"
   xmlns:inkscape="http://www.inkscape.org/namespaces/inkscape"
   xmlns:sodipodi="http://sodipodi.sourceforge.net/DTD/sodipodi-0.dtd"
   xmlns="http://www.w3.org/2000/svg"
   xmlns:svg="http://www.w3.org/2000/svg">
  <sodipodi:namedview
     id="namedview1"
     pagecolor="#ffffff"
     bordercolor="#000000"
     borderopacity="0.25"
     inkscape:showpageshadow="2"
     inkscape:pageopacity="0.0"
     inkscape:pagecheckerboard="0"
     inkscape:deskcolor="#d1d1d1"
     inkscape:document-units="mm"
     showgrid="false"
     inkscape:zoom="3.8166088"
     inkscape:cx="-51.35449"
     inkscape:cy="39.694924"
     inkscape:window-width="1920"
     inkscape:window-height="1009"
     inkscape:window-x="0"
     inkscape:window-y="1080"
     inkscape:window-maximized="1"
     inkscape:current-layer="layer1">
    <inkscape:grid
       id="grid1"
       units="mm"
       originx="0"
       originy="0"
       spacingx="0.99999999"
       spacingy="0.99999999"
       empcolor="#3f3fff"
       empopacity="0.25098039"
       color="#3f3fff"
       opacity="0.1254902"
       empspacing="5"
       dotted="false"
       gridanglex="30"
       gridanglez="30"
       visible="false" />
  </sodipodi:namedview>
  <defs
     id="defs1" />
  <g
     inkscape:label="Ebene 1"
     inkscape:groupmode="layer"
     id="layer1">
    <g
       inkscape:label="QR Code: printables.com/model/1003937"
       transform="scale(0.264583)"
       id="g4">
      <rect
         x="0"
         y="0"
         width="148"
         height="148"
         style="fill:#ffffff;stroke:none"
         id="rect2" />
      <g
         style="fill:#000000;stroke:none"
         id="g3">
        <path
           d="m 16,16 h 4 v 4 h -4 z m 4,0 h 4 v 4 h -4 z m 4,0 h 4 v 4 h -4 z m 4,0 h 4 v 4 h -4 z m 4,0 h 4 v 4 h -4 z m 4,0 h 4 v 4 h -4 z m 4,0 h 4 v 4 h -4 z m 8,0 h 4 v 4 h -4 z m 4,0 h 4 v 4 h -4 z m 12,0 h 4 v 4 h -4 z m 8,0 h 4 v 4 h -4 z m 12,0 h 4 v 4 h -4 z m 8,0 h 4 v 4 h -4 z m 12,0 h 4 v 4 h -4 z m 4,0 h 4 v 4 h -4 z m 4,0 h 4 v 4 h -4 z m 4,0 h 4 v 4 h -4 z m 4,0 h 4 v 4 h -4 z m 4,0 h 4 v 4 h -4 z m 4,0 h 4 v 4 h -4 z M 16,20 h 4 v 4 h -4 z m 24,0 h 4 v 4 h -4 z m 12,0 h 4 v 4 h -4 z m 12,0 h 4 v 4 h -4 z m 4,0 h 4 v 4 h -4 z m 12,0 h 4 v 4 h -4 z m 4,0 h 4 v 4 h -4 z m 12,0 h 4 v 4 h -4 z m 8,0 h 4 v 4 h -4 z m 24,0 h 4 v 4 h -4 z M 16,24 h 4 v 4 h -4 z m 8,0 h 4 v 4 h -4 z m 4,0 h 4 v 4 h -4 z m 4,0 h 4 v 4 h -4 z m 8,0 h 4 v 4 h -4 z m 20,0 h 4 v 4 h -4 z m 8,0 h 4 v 4 h -4 z m 4,0 h 4 v 4 h -4 z m 16,0 h 4 v 4 h -4 z m 4,0 h 4 v 4 h -4 z m 12,0 h 4 v 4 h -4 z m 8,0 h 4 v 4 h -4 z m 4,0 h 4 v 4 h -4 z m 4,0 h 4 v 4 h -4 z m 8,0 h 4 v 4 h -4 z M 16,28 h 4 v 4 h -4 z m 8,0 h 4 v 4 h -4 z m 4,0 h 4 v 4 h -4 z m 4,0 h 4 v 4 h -4 z m 8,0 h 4 v 4 h -4 z m 16,0 h 4 v 4 h -4 z m 12,0 h 4 v 4 h -4 z m 8,0 h 4 v 4 h -4 z m 4,0 h 4 v 4 h -4 z m 4,0 h 4 v 4 h -4 z m 20,0 h 4 v 4 h -4 z m 8,0 h 4 v 4 h -4 z m 4,0 h 4 v 4 h -4 z m 4,0 h 4 v 4 h -4 z m 8,0 h 4 v 4 h -4 z M 16,32 h 4 v 4 h -4 z m 8,0 h 4 v 4 h -4 z m 4,0 h 4 v 4 h -4 z m 4,0 h 4 v 4 h -4 z m 8,0 h 4 v 4 h -4 z m 8,0 h 4 v 4 h -4 z m 4,0 h 4 v 4 h -4 z m 4,0 h 4 v 4 h -4 z m 16,0 h 4 v 4 h -4 z m 4,0 h 4 v 4 h -4 z m 12,0 h 4 v 4 h -4 z m 4,0 h 4 v 4 h -4 z m 12,0 h 4 v 4 h -4 z m 8,0 h 4 v 4 h -4 z m 4,0 h 4 v 4 h -4 z m 4,0 h 4 v 4 h -4 z m 8,0 h 4 v 4 h -4 z M 16,36 h 4 v 4 h -4 z m 24,0 h 4 v 4 h -4 z m 8,0 h 4 v 4 h -4 z m 16,0 h 4 v 4 h -4 z m 4,0 h 4 v 4 h -4 z m 4,0 h 4 v 4 h -4 z m 12,0 h 4 v 4 h -4 z m 12,0 h 4 v 4 h -4 z m 8,0 h 4 v 4 h -4 z m 24,0 h 4 v 4 h -4 z M 16,40 h 4 v 4 h -4 z m 4,0 h 4 v 4 h -4 z m 4,0 h 4 v 4 h -4 z m 4,0 h 4 v 4 h -4 z m 4,0 h 4 v 4 h -4 z m 4,0 h 4 v 4 h -4 z m 4,0 h 4 v 4 h -4 z m 8,0 h 4 v 4 h -4 z m 8,0 h 4 v 4 h -4 z m 8,0 h 4 v 4 h -4 z m 8,0 h 4 v 4 h -4 z m 8,0 h 4 v 4 h -4 z m 8,0 h 4 v 4 h -4 z m 8,0 h 4 v 4 h -4 z m 8,0 h 4 v 4 h -4 z m 4,0 h 4 v 4 h -4 z m 4,0 h 4 v 4 h -4 z m 4,0 h 4 v 4 h -4 z m 4,0 h 4 v 4 h -4 z m 4,0 h 4 v 4 h -4 z m 4,0 h 4 v 4 h -4 z m -76,4 h 4 v 4 h -4 z m 8,0 h 4 v 4 h -4 z m 4,0 h 4 v 4 h -4 z m 4,0 h 4 v 4 h -4 z m 4,0 h 4 v 4 h -4 z m 4,0 h 4 v 4 h -4 z m 16,0 h 4 v 4 h -4 z m -72,4 h 4 v 4 h -4 z m 4,0 h 4 v 4 h -4 z m 4,0 h 4 v 4 h -4 z m 4,0 h 4 v 4 h -4 z m 4,0 h 4 v 4 h -4 z m 4,0 h 4 v 4 h -4 z m 4,0 h 4 v 4 h -4 z m 8,0 h 4 v 4 h -4 z m 4,0 h 4 v 4 h -4 z m 12,0 h 4 v 4 h -4 z m 4,0 h 4 v 4 h -4 z m 4,0 h 4 v 4 h -4 z m 4,0 h 4 v 4 h -4 z m 8,0 h 4 v 4 h -4 z m 8,0 h 4 v 4 h -4 z m 12,0 h 4 v 4 h -4 z m 4,0 h 4 v 4 h -4 z m 16,0 h 4 v 4 h -4 z M 20,52 h 4 v 4 h -4 z m 4,0 h 4 v 4 h -4 z m 4,0 h 4 v 4 h -4 z m 16,0 h 4 v 4 h -4 z m 4,0 h 4 v 4 h -4 z m 8,0 h 4 v 4 h -4 z m 8,0 h 4 v 4 h -4 z m 12,0 h 4 v 4 h -4 z m 4,0 h 4 v 4 h -4 z m 8,0 h 4 v 4 h -4 z m 4,0 h 4 v 4 h -4 z m 12,0 h 4 v 4 h -4 z m 8,0 h 4 v 4 h -4 z m 4,0 h 4 v 4 h -4 z m 12,0 h 4 v 4 h -4 z M 28,56 h 4 v 4 h -4 z m 4,0 h 4 v 4 h -4 z m 4,0 h 4 v 4 h -4 z m 4,0 h 4 v 4 h -4 z m 4,0 h 4 v 4 h -4 z m 16,0 h 4 v 4 h -4 z m 12,0 h 4 v 4 h -4 z m 12,0 h 4 v 4 h -4 z m 4,0 h 4 v 4 h -4 z m 8,0 h 4 v 4 h -4 z m 4,0 h 4 v 4 h -4 z m 8,0 h 4 v 4 h -4 z m 4,0 h 4 v 4 h -4 z m -92,4 h 4 v 4 h -4 z m 12,0 h 4 v 4 h -4 z m 16,0 h 4 v 4 h -4 z m 4,0 h 4 v 4 h -4 z m 4,0 h 4 v 4 h -4 z m 12,0 h 4 v 4 h -4 z m 4,0 h 4 v 4 h -4 z m 4,0 h 4 v 4 h -4 z m 36,0 h 4 v 4 h -4 z m 4,0 h 4 v 4 h -4 z m 8,0 h 4 v 4 h -4 z M 16,64 h 4 v 4 h -4 z m 4,0 h 4 v 4 h -4 z m 20,0 h 4 v 4 h -4 z m 8,0 h 4 v 4 h -4 z m 8,0 h 4 v 4 h -4 z m 20,0 h 4 v 4 h -4 z m 8,0 h 4 v 4 h -4 z m 8,0 h 4 v 4 h -4 z m 4,0 h 4 v 4 h -4 z m 24,0 h 4 v 4 h -4 z m 4,0 h 4 v 4 h -4 z M 16,68 h 4 v 4 h -4 z m 8,0 h 4 v 4 h -4 z m 8,0 h 4 v 4 h -4 z m 4,0 h 4 v 4 h -4 z m 8,0 h 4 v 4 h -4 z m 16,0 h 4 v 4 h -4 z m 12,0 h 4 v 4 h -4 z m 4,0 h 4 v 4 h -4 z m 8,0 h 4 v 4 h -4 z m 4,0 h 4 v 4 h -4 z m 4,0 h 4 v 4 h -4 z m 4,0 h 4 v 4 h -4 z m 4,0 h 4 v 4 h -4 z m 4,0 h 4 v 4 h -4 z m 4,0 h 4 v 4 h -4 z m 4,0 h 4 v 4 h -4 z m 12,0 h 4 v 4 h -4 z m 4,0 h 4 v 4 h -4 z M 16,72 h 4 v 4 h -4 z m 4,0 h 4 v 4 h -4 z m 4,0 h 4 v 4 h -4 z m 8,0 h 4 v 4 h -4 z m 8,0 h 4 v 4 h -4 z m 12,0 h 4 v 4 h -4 z m 4,0 h 4 v 4 h -4 z m 4,0 h 4 v 4 h -4 z m 20,0 h 4 v 4 h -4 z m 4,0 h 4 v 4 h -4 z m 12,0 h 4 v 4 h -4 z m 4,0 h 4 v 4 h -4 z m 12,0 h 4 v 4 h -4 z m 8,0 h 4 v 4 h -4 z M 16,76 h 4 v 4 h -4 z m 4,0 h 4 v 4 h -4 z m 16,0 h 4 v 4 h -4 z m 8,0 h 4 v 4 h -4 z m 8,0 h 4 v 4 h -4 z m 24,0 h 4 v 4 h -4 z m 8,0 h 4 v 4 h -4 z m 4,0 h 4 v 4 h -4 z m 8,0 h 4 v 4 h -4 z m 4,0 h 4 v 4 h -4 z m 8,0 h 4 v 4 h -4 z m 4,0 h 4 v 4 h -4 z m 4,0 h 4 v 4 h -4 z m 12,0 h 4 v 4 h -4 z M 20,80 h 4 v 4 h -4 z m 8,0 h 4 v 4 h -4 z m 4,0 h 4 v 4 h -4 z m 4,0 h 4 v 4 h -4 z m 4,0 h 4 v 4 h -4 z m 12,0 h 4 v 4 h -4 z m 4,0 h 4 v 4 h -4 z m 4,0 h 4 v 4 h -4 z m 4,0 h 4 v 4 h -4 z m 8,0 h 4 v 4 h -4 z m 8,0 h 4 v 4 h -4 z m 16,0 h 4 v 4 h -4 z m 4,0 h 4 v 4 h -4 z m 8,0 h 4 v 4 h -4 z m 12,0 h 4 v 4 h -4 z m 8,0 h 4 v 4 h -4 z M 16,84 h 4 v 4 h -4 z m 4,0 h 4 v 4 h -4 z m 12,0 h 4 v 4 h -4 z m 4,0 h 4 v 4 h -4 z m 12,0 h 4 v 4 h -4 z m 20,0 h 4 v 4 h -4 z m 4,0 h 4 v 4 h -4 z m 4,0 h 4 v 4 h -4 z m 8,0 h 4 v 4 h -4 z m 4,0 h 4 v 4 h -4 z m 4,0 h 4 v 4 h -4 z m 12,0 h 4 v 4 h -4 z m 8,0 h 4 v 4 h -4 z m 4,0 h 4 v 4 h -4 z m 12,0 h 4 v 4 h -4 z M 16,88 h 4 v 4 h -4 z m 8,0 h 4 v 4 h -4 z m 4,0 h 4 v 4 h -4 z m 8,0 h 4 v 4 h -4 z m 4,0 h 4 v 4 h -4 z m 8,0 h 4 v 4 h -4 z m 4,0 h 4 v 4 h -4 z m 20,0 h 4 v 4 h -4 z m 4,0 h 4 v 4 h -4 z m 4,0 h 4 v 4 h -4 z m 4,0 h 4 v 4 h -4 z m 12,0 h 4 v 4 h -4 z m 4,0 h 4 v 4 h -4 z m 8,0 h 4 v 4 h -4 z m 8,0 h 4 v 4 h -4 z M 16,92 h 4 v 4 h -4 z m 12,0 h 4 v 4 h -4 z m 4,0 h 4 v 4 h -4 z m 4,0 h 4 v 4 h -4 z m 16,0 h 4 v 4 h -4 z m 8,0 h 4 v 4 h -4 z m 8,0 h 4 v 4 h -4 z m 4,0 h 4 v 4 h -4 z m 4,0 h 4 v 4 h -4 z m 16,0 h 4 v 4 h -4 z m 8,0 h 4 v 4 h -4 z m 4,0 h 4 v 4 h -4 z m 4,0 h 4 v 4 h -4 z m 8,0 h 4 v 4 h -4 z m 8,0 h 4 v 4 h -4 z M 16,96 h 4 v 4 h -4 z m 12,0 h 4 v 4 h -4 z m 8,0 h 4 v 4 h -4 z m 4,0 h 4 v 4 h -4 z m 12,0 h 4 v 4 h -4 z m 8,0 h 4 v 4 h -4 z m 8,0 h 4 v 4 h -4 z m 8,0 h 4 v 4 h -4 z m 8,0 h 4 v 4 h -4 z m 12,0 h 4 v 4 h -4 z m 4,0 h 4 v 4 h -4 z m 4,0 h 4 v 4 h -4 z m 4,0 h 4 v 4 h -4 z m 4,0 h 4 v 4 h -4 z m 8,0 h 4 v 4 h -4 z m 8,0 h 4 v 4 h -4 z m -80,4 h 4 v 4 h -4 z m 12,0 h 4 v 4 h -4 z m 4,0 h 4 v 4 h -4 z m 16,0 h 4 v 4 h -4 z m 8,0 h 4 v 4 h -4 z m 8,0 h 4 v 4 h -4 z m 16,0 h 4 v 4 h -4 z m 8,0 h 4 v 4 h -4 z m 4,0 h 4 v 4 h -4 z m 4,0 h 4 v 4 h -4 z m -112,4 h 4 v 4 h -4 z m 4,0 h 4 v 4 h -4 z m 4,0 h 4 v 4 h -4 z m 4,0 h 4 v 4 h -4 z m 4,0 h 4 v 4 h -4 z m 4,0 h 4 v 4 h -4 z m 4,0 h 4 v 4 h -4 z m 8,0 h 4 v 4 h -4 z m 4,0 h 4 v 4 h -4 z m 8,0 h 4 v 4 h -4 z m 4,0 h 4 v 4 h -4 z m 4,0 h 4 v 4 h -4 z m 8,0 h 4 v 4 h -4 z m 4,0 h 4 v 4 h -4 z m 8,0 h 4 v 4 h -4 z m 4,0 h 4 v 4 h -4 z m 4,0 h 4 v 4 h -4 z m 8,0 h 4 v 4 h -4 z m 8,0 h 4 v 4 h -4 z m 4,0 h 4 v 4 h -4 z m -100,4 h 4 v 4 h -4 z m 24,0 h 4 v 4 h -4 z m 8,0 h 4 v 4 h -4 z m 8,0 h 4 v 4 h -4 z m 12,0 h 4 v 4 h -4 z m 4,0 h 4 v 4 h -4 z m 8,0 h 4 v 4 h -4 z m 12,0 h 4 v 4 h -4 z m 4,0 h 4 v 4 h -4 z m 16,0 h 4 v 4 h -4 z m 4,0 h 4 v 4 h -4 z m -100,4 h 4 v 4 h -4 z m 8,0 h 4 v 4 h -4 z m 4,0 h 4 v 4 h -4 z m 4,0 h 4 v 4 h -4 z m 8,0 h 4 v 4 h -4 z m 8,0 h 4 v 4 h -4 z m 12,0 h 4 v 4 h -4 z m 4,0 h 4 v 4 h -4 z m 4,0 h 4 v 4 h -4 z m 4,0 h 4 v 4 h -4 z m 16,0 h 4 v 4 h -4 z m 8,0 h 4 v 4 h -4 z m 4,0 h 4 v 4 h -4 z m 4,0 h 4 v 4 h -4 z m 4,0 h 4 v 4 h -4 z m 4,0 h 4 v 4 h -4 z m 8,0 h 4 v 4 h -4 z m 8,0 h 4 v 4 h -4 z m -112,4 h 4 v 4 h -4 z m 8,0 h 4 v 4 h -4 z m 4,0 h 4 v 4 h -4 z m 4,0 h 4 v 4 h -4 z m 8,0 h 4 v 4 h -4 z m 8,0 h 4 v 4 h -4 z m 4,0 h 4 v 4 h -4 z m 4,0 h 4 v 4 h -4 z m 8,0 h 4 v 4 h -4 z m 12,0 h 4 v 4 h -4 z m 4,0 h 4 v 4 h -4 z m 4,0 h 4 v 4 h -4 z m 24,0 h 4 v 4 h -4 z m 8,0 h 4 v 4 h -4 z m 4,0 h 4 v 4 h -4 z m -104,4 h 4 v 4 h -4 z m 8,0 h 4 v 4 h -4 z m 4,0 h 4 v 4 h -4 z m 4,0 h 4 v 4 h -4 z m 8,0 h 4 v 4 h -4 z m 8,0 h 4 v 4 h -4 z m 8,0 h 4 v 4 h -4 z m 8,0 h 4 v 4 h -4 z m 4,0 h 4 v 4 h -4 z m 24,0 h 4 v 4 h -4 z m 4,0 h 4 v 4 h -4 z m 4,0 h 4 v 4 h -4 z m 4,0 h 4 v 4 h -4 z m 4,0 h 4 v 4 h -4 z m 4,0 h 4 v 4 h -4 z m 12,0 h 4 v 4 h -4 z m -108,4 h 4 v 4 h -4 z m 24,0 h 4 v 4 h -4 z m 8,0 h 4 v 4 h -4 z m 4,0 h 4 v 4 h -4 z m 4,0 h 4 v 4 h -4 z m 24,0 h 4 v 4 h -4 z m 12,0 h 4 v 4 h -4 z m 4,0 h 4 v 4 h -4 z m 4,0 h 4 v 4 h -4 z m 24,0 h 4 v 4 h -4 z m -108,4 h 4 v 4 h -4 z m 4,0 h 4 v 4 h -4 z m 4,0 h 4 v 4 h -4 z m 4,0 h 4 v 4 h -4 z m 4,0 h 4 v 4 h -4 z m 4,0 h 4 v 4 h -4 z m 4,0 h 4 v 4 h -4 z m 20,0 h 4 v 4 h -4 z m 8,0 h 4 v 4 h -4 z m 4,0 h 4 v 4 h -4 z m 12,0 h 4 v 4 h -4 z m 4,0 h 4 v 4 h -4 z m 12,0 h 4 v 4 h -4 z m 8,0 h 4 v 4 h -4 z m 12,0 h 4 v 4 h -4 z"
           id="path2" />
      </g>
    </g>
  </g>
</svg>
